<svg width="20" height="20" viewBox="0 0 20 20" fill="none" xmlns="http://www.w3.org/2000/svg">
<path d="M17.5383 10.6635L11.9133 16.2885C11.7372 16.4647 11.4983 16.5636 11.2492 16.5636C11.0001 16.5636 10.7613 16.4647 10.5852 16.2885C10.409 16.1124 10.3101 15.8736 10.3101 15.6245C10.3101 15.3754 10.409 15.1365 10.5852 14.9604L14.6094 10.9378H3.125C2.87636 10.9378 2.6379 10.839 2.46209 10.6632C2.28627 10.4874 2.1875 10.2489 2.1875 10.0003C2.1875 9.75162 2.28627 9.51316 2.46209 9.33735C2.6379 9.16153 2.87636 9.06276 3.125 9.06276H14.6094L10.5867 5.03776C10.4106 4.86164 10.3117 4.62277 10.3117 4.3737C10.3117 4.12462 10.4106 3.88575 10.5867 3.70963C10.7628 3.53351 11.0017 3.43457 11.2508 3.43457C11.4999 3.43457 11.7387 3.53351 11.9148 3.70963L17.5398 9.33463C17.6273 9.42185 17.6966 9.52547 17.7438 9.63955C17.7911 9.75364 17.8153 9.87593 17.8152 9.99941C17.815 10.1229 17.7905 10.2451 17.743 10.3591C17.6955 10.4731 17.6259 10.5765 17.5383 10.6635Z" fill="white"/>
</svg>
