<svg width="32" height="32" viewBox="0 0 32 32" fill="none" xmlns="http://www.w3.org/2000/svg">
<g clip-path="url(#clip0_2404_3343)">
<path d="M19.7039 4.23891L6.07901 6.14834C4.37985 6.38647 3.1963 7.95521 3.43548 9.65224L5.35338 23.2601C5.59255 24.9571 7.16389 26.1398 8.86304 25.9016L22.488 23.9922C24.1871 23.7541 25.3707 22.1853 25.1315 20.4883L23.2136 6.88048C22.9744 5.18346 21.4031 4.00079 19.7039 4.23891Z" fill="black"/>
<g filter="url(#filter0_d_2404_3343)">
<path d="M11.2882 7.33736H25.627C27.3802 7.33736 28.801 8.75599 28.801 10.5055V24.8218C28.8007 26.5712 27.38 27.99 25.627 27.99H11.2882C9.53511 27.99 8.11442 26.5712 8.11417 24.8218V10.5055C8.1142 8.75599 9.53497 7.33736 11.2882 7.33736Z" fill="url(#paint0_linear_2404_3343)" stroke="url(#paint1_linear_2404_3343)" stroke-width="0.4"/>
</g>
<path d="M12.2076 11.5056H11.3623C10.9213 11.5056 10.5639 11.8624 10.5639 12.3026C10.5639 12.7428 10.9213 13.0997 11.3623 13.0997H12.2076C12.6485 13.0997 13.0059 12.7428 13.0059 12.3026C13.0059 11.8624 12.6485 11.5056 12.2076 11.5056Z" fill="white"/>
<path opacity="0.6" d="M24.237 11.5056H14.7457C14.3046 11.5056 13.9469 11.8626 13.9469 12.303C13.9469 12.7435 14.3046 13.1005 14.7457 13.1005H24.237C24.6782 13.1005 25.0358 12.7435 25.0358 12.303C25.0358 11.8626 24.6782 11.5056 24.237 11.5056Z" fill="#6FD0FF"/>
<path d="M14.8396 14.3202H11.3626C10.9214 14.3202 10.5638 14.6772 10.5638 15.1177C10.5638 15.5581 10.9214 15.9151 11.3626 15.9151H14.8396C15.2808 15.9151 15.6384 15.5581 15.6384 15.1177C15.6384 14.6772 15.2808 14.3202 14.8396 14.3202Z" fill="white"/>
<path opacity="0.55" d="M25.5528 14.3202H17.1892C16.748 14.3202 16.3904 14.6772 16.3904 15.1177C16.3904 15.5581 16.748 15.9151 17.1892 15.9151H25.5528C25.994 15.9151 26.3516 15.5581 26.3516 15.1177C26.3516 14.6772 25.994 14.3202 25.5528 14.3202Z" fill="#6FD0FF"/>
<path d="M17.6588 17.1348H11.3626C10.9214 17.1348 10.5638 17.4919 10.5638 17.9323C10.5638 18.3727 10.9214 18.7298 11.3626 18.7298H17.6588C18.1 18.7298 18.4576 18.3727 18.4576 17.9323C18.4576 17.4919 18.1 17.1348 17.6588 17.1348Z" fill="white"/>
<path opacity="0.5" d="M25.5527 17.1348H20.0083C19.5671 17.1348 19.2095 17.4919 19.2095 17.9323C19.2095 18.3727 19.5671 18.7298 20.0083 18.7298H25.5527C25.9939 18.7298 26.3515 18.3727 26.3515 17.9323C26.3515 17.4919 25.9939 17.1348 25.5527 17.1348Z" fill="#6FD0FF"/>
<path d="M15.2155 19.9495H11.3626C10.9214 19.9495 10.5638 20.3065 10.5638 20.7469C10.5638 21.1873 10.9214 21.5444 11.3626 21.5444H15.2155C15.6567 21.5444 16.0143 21.1873 16.0143 20.7469C16.0143 20.3065 15.6567 19.9495 15.2155 19.9495Z" fill="white"/>
<path opacity="0.45" d="M25.5527 19.9495H17.377C16.9358 19.9495 16.5782 20.3065 16.5782 20.7469C16.5782 21.1873 16.9358 21.5444 17.377 21.5444H25.5527C25.9939 21.5444 26.3515 21.1873 26.3515 20.7469C26.3515 20.3065 25.9939 19.9495 25.5527 19.9495Z" fill="#6FD0FF"/>
<path opacity="0.9" d="M12.2075 22.7641H11.3622C10.9212 22.7641 10.5638 23.1209 10.5638 23.5611C10.5638 24.0013 10.9212 24.3582 11.3622 24.3582H12.2075C12.6484 24.3582 13.0058 24.0013 13.0058 23.5611C13.0058 23.1209 12.6484 22.7641 12.2075 22.7641Z" fill="white"/>
<path opacity="0.35" d="M24.237 22.7641H14.7457C14.3046 22.7641 13.9469 23.1211 13.9469 23.5615C13.9469 24.002 14.3046 24.359 14.7457 24.359H24.237C24.6782 24.359 25.0358 24.002 25.0358 23.5615C25.0358 23.1211 24.6782 22.7641 24.237 22.7641Z" fill="#6FD0FF"/>
</g>
<defs>
<filter id="filter0_d_2404_3343" x="4.9666" y="4.29505" width="26.1399" height="26.1057" filterUnits="userSpaceOnUse" color-interpolation-filters="sRGB">
<feFlood flood-opacity="0" result="BackgroundImageFix"/>
<feColorMatrix in="SourceAlpha" type="matrix" values="0 0 0 0 0 0 0 0 0 0 0 0 0 0 0 0 0 0 127 0" result="hardAlpha"/>
<feOffset dx="-0.421027" dy="-0.31577"/>
<feGaussianBlur stdDeviation="1.26308"/>
<feComposite in2="hardAlpha" operator="out"/>
<feColorMatrix type="matrix" values="0 0 0 0 0 0 0 0 0 0 0 0 0 0 0 0 0 0 0.08 0"/>
<feBlend mode="normal" in2="BackgroundImageFix" result="effect1_dropShadow_2404_3343"/>
<feBlend mode="normal" in="SourceGraphic" in2="effect1_dropShadow_2404_3343" result="shape"/>
</filter>
<linearGradient id="paint0_linear_2404_3343" x1="7.91397" y1="7.13715" x2="7.91397" y2="28.1898" gradientUnits="userSpaceOnUse">
<stop stop-color="#42B5FF"/>
<stop offset="1" stop-color="#0B66E7"/>
</linearGradient>
<linearGradient id="paint1_linear_2404_3343" x1="27.5603" y1="7.13715" x2="7.94859" y2="28.222" gradientUnits="userSpaceOnUse">
<stop stop-color="#3CB2FC"/>
<stop offset="1" stop-color="#0265CE"/>
</linearGradient>
<clipPath id="clip0_2404_3343">
<rect width="31.998" height="31.998" fill="white"/>
</clipPath>
</defs>
</svg>
