<svg width="191" height="224" viewBox="0 0 191 224" fill="none" xmlns="http://www.w3.org/2000/svg">
<g clip-path="url(#clip0_2404_3374)" filter="url(#filter0_d_2404_3374)">
<path d="M47.5392 55.4495L38.3332 58.3144L57.8565 129.711L61.6602 155.702L64.7391 155.263L66.5846 163.582L117.251 149.618L129.176 146.33L142.019 144.328L141.994 143.043L144.945 142.053L139.614 123.31L134.311 77.0162L131.408 51.6616L129.454 34.6L98.5565 39.5068L65.6847 44.7229L50.7845 47.0853L46.4592 47.7736L47.5392 55.4495Z" fill="white"/>
<path d="M47.5392 55.4498L38.3332 58.3146L57.863 128.783L47.5392 55.4498Z" fill="black"/>
<path d="M64.4984 155.337L66.5846 163.583L129.176 146.33L64.4984 155.337Z" fill="#4CA2CC"/>
<path d="M139.804 123.982L141.994 143.044L144.945 142.054L139.804 123.982Z" fill="#4CA2CC"/>
<path d="M46.2071 47.7786C46.3422 48.7396 46.4774 49.7006 46.6154 50.6661C46.9836 53.2855 47.3518 55.9049 47.7246 58.5214C48.2703 62.394 48.8161 66.2666 49.3618 70.1392C50.0249 74.8627 50.6909 79.5909 51.3586 84.3116C52.0865 89.4855 52.8172 94.6641 53.545 99.838C54.2803 105.065 55.0173 110.284 55.7526 115.511C56.4375 120.361 57.1178 125.214 57.8026 130.064C58.3816 134.184 58.9651 138.3 59.5441 142.42C59.9621 145.384 60.3773 148.344 60.7953 151.308C60.9923 152.715 61.1652 154.124 61.388 155.521C61.3983 155.579 61.4069 155.643 61.4126 155.704C61.4315 155.826 61.5278 155.97 61.6739 155.948C64.3552 155.567 67.0318 155.188 69.7159 154.812C76.1042 153.905 82.4953 153.003 88.8835 152.097C96.6092 151.005 104.328 149.911 112.053 148.819C118.765 147.869 125.477 146.92 132.189 145.97C135.422 145.512 138.69 145.172 141.906 144.597C141.952 144.588 141.995 144.586 142.04 144.577C142.17 144.559 142.302 144.464 142.285 144.315C142.173 143.34 142.061 142.365 141.948 141.389C141.643 138.718 141.336 136.054 141.031 133.382C140.582 129.45 140.132 125.517 139.683 121.584C139.134 116.789 138.583 111.989 138.034 107.194C137.435 101.94 136.831 96.6885 136.229 91.4297C135.618 86.1062 135.011 80.7798 134.397 75.4517C133.832 70.5075 133.264 65.5588 132.699 60.6146C132.221 56.432 131.741 52.2569 131.263 48.0743C130.921 45.0687 130.572 42.0614 130.23 39.0558C130.065 37.6289 129.937 36.1986 129.743 34.7769C129.735 34.7122 129.729 34.652 129.723 34.5918C129.712 34.4715 129.608 34.3259 129.462 34.3471C126.705 34.7818 123.952 35.221 121.196 35.6557C114.578 36.7055 107.961 37.7552 101.351 38.8067C93.3482 40.0781 85.3503 41.3466 77.3478 42.6179C70.4696 43.7095 63.5914 44.801 56.7086 45.8955C53.3449 46.4292 49.9496 46.8615 46.6054 47.4979C46.5601 47.507 46.5119 47.5116 46.4621 47.5236C46.1441 47.5757 46.1578 48.0771 46.4787 48.0296C49.235 47.5949 51.9884 47.1557 54.7448 46.721C61.3622 45.6713 67.9797 44.6215 74.5897 43.5701C82.5922 42.2987 90.5901 41.0302 98.5926 39.7588C105.471 38.6672 112.349 37.5757 119.232 36.4813C121.517 36.1182 123.797 35.758 126.081 35.3949L128.232 35.0518C128.562 34.9986 129.022 35.0106 129.335 34.8789C129.375 34.8605 129.433 34.8623 129.478 34.8531L129.217 34.6084C129.329 35.5837 129.442 36.559 129.554 37.5343C129.859 40.2058 130.166 42.8699 130.471 45.5414C130.92 49.4741 131.37 53.4069 131.819 57.3397C132.368 62.1348 132.919 66.9346 133.468 71.7298C134.067 76.984 134.671 82.2353 135.274 87.494C135.885 92.8176 136.491 98.1439 137.105 103.472C137.67 108.416 138.238 113.365 138.803 118.309C139.281 122.492 139.761 126.667 140.239 130.849C140.581 133.855 140.93 136.862 141.272 139.868C141.378 140.803 141.486 141.742 141.592 142.676C141.646 143.14 141.631 143.698 141.759 144.147C141.777 144.206 141.773 144.272 141.779 144.332L142.024 144.071C139.343 144.452 136.666 144.831 133.982 145.207C127.594 146.114 121.202 147.016 114.814 147.922C107.088 149.014 99.3702 150.108 91.6445 151.2C84.9325 152.15 78.2205 153.099 71.5085 154.049C69.3229 154.356 67.1327 154.666 64.95 154.979L62.8773 155.273C62.5564 155.32 62.0952 155.296 61.7943 155.427C61.7548 155.445 61.7009 155.441 61.6602 155.447L61.9215 155.692C61.7863 154.731 61.6512 153.77 61.5132 152.804C61.145 150.185 60.7768 147.565 60.404 144.949C59.8582 141.076 59.3125 137.204 58.7668 133.331C58.1036 128.608 57.4376 123.879 56.7699 119.159C56.0421 113.985 55.3114 108.806 54.5836 103.632C53.8483 98.4055 53.1113 93.1863 52.376 87.9596C51.6911 83.1094 51.0108 78.2563 50.3259 73.4061C49.747 69.2865 49.1634 65.1698 48.5845 61.0502C48.1664 58.0859 47.7513 55.1262 47.3332 52.1618C47.1362 50.755 46.9633 49.3459 46.7405 47.9488C46.7302 47.8915 46.7216 47.8268 46.7159 47.7666C46.6713 47.4503 46.167 47.4594 46.2099 47.7832L46.2071 47.7786Z" fill="#304E9B"/>
<path d="M47.4653 55.2089C44.7811 56.0447 42.1016 56.8776 39.4145 57.7088C39.03 57.828 38.6409 57.95 38.2564 58.0692C37.9475 58.1666 38.0908 58.6508 38.3996 58.5534C41.0838 57.7176 43.7634 56.8847 46.4504 56.0534C46.8349 55.9343 47.224 55.8123 47.6085 55.6931C47.9174 55.5957 47.7742 55.1115 47.4653 55.2089ZM145.189 141.984C144.58 139.796 143.966 137.61 143.36 135.426C142.388 131.942 141.418 128.461 140.445 124.977C140.221 124.18 140 123.387 139.781 122.587C139.692 122.273 139.211 122.42 139.296 122.73C139.905 124.919 140.519 127.104 141.125 129.288C142.098 132.773 143.067 136.253 144.04 139.738C144.264 140.535 144.485 141.327 144.705 142.127C144.793 142.442 145.274 142.294 145.189 141.984ZM64.4984 155.337C65.0357 157.768 65.5804 160.2 66.1177 162.631C66.1916 162.974 66.2701 163.314 66.3411 163.652C66.3686 163.788 66.533 163.857 66.6557 163.818C67.2258 163.66 67.7989 163.506 68.3691 163.347C69.9237 162.917 71.4784 162.488 73.0285 162.061L79.9246 160.162C82.7313 159.389 85.5307 158.615 88.3374 157.843C91.3998 157.001 94.4593 156.153 97.5171 155.314C100.617 154.46 103.717 153.607 106.815 152.748C109.697 151.954 112.575 151.163 115.455 150.365L122.779 148.344C124.534 147.859 126.29 147.374 128.049 146.893C128.879 146.661 129.717 146.451 130.541 146.21C130.574 146.201 130.612 146.191 130.645 146.183C130.96 146.094 130.812 145.613 130.502 145.698C129.932 145.857 129.359 146.011 128.789 146.17C127.234 146.599 125.679 147.029 124.129 147.456C121.829 148.09 119.534 148.721 117.233 149.355C114.427 150.128 111.627 150.901 108.82 151.674C105.758 152.516 102.699 153.363 99.6408 154.203C96.5406 155.057 93.4405 155.91 90.3432 156.768C87.4607 157.562 84.5829 158.353 81.7033 159.152L74.3792 161.172C72.6234 161.658 70.8676 162.143 69.1089 162.623C68.2877 162.85 67.4202 163.022 66.6167 163.307C66.5818 163.323 66.5457 163.326 66.5125 163.334L66.827 163.501C66.2898 161.07 65.745 158.638 65.2078 156.207C65.1339 155.864 65.0554 155.524 64.9844 155.186C64.9128 154.868 64.4314 155.015 64.5001 155.329L64.4984 155.337Z" fill="#304E9B"/>
<path d="M38.0897 58.3837C38.2655 59.0324 38.4431 59.6736 38.619 60.3223C39.0996 62.081 39.5802 63.8397 40.0608 65.5983C40.7745 68.1994 41.4808 70.7987 42.1946 73.3998C43.0624 76.5739 43.9274 79.7434 44.7953 82.9175C45.7427 86.3925 46.6977 89.8691 47.6451 93.3441C48.6052 96.8494 49.5635 100.362 50.5236 103.868C51.4201 107.138 52.3091 110.408 53.2056 113.679L55.4735 121.97C56.0148 123.958 56.5607 125.944 57.102 127.933C57.3564 128.87 57.597 129.816 57.8754 130.751C57.8863 130.789 57.9 130.832 57.9063 130.872C57.9945 131.187 58.4759 131.039 58.3905 130.729C58.2147 130.08 58.0371 129.439 57.8612 128.79C57.3806 127.032 56.9 125.273 56.4194 123.514C55.7057 120.913 54.9994 118.314 54.2856 115.713C53.4178 112.539 52.5528 109.369 51.6849 106.195C50.7375 102.72 49.7825 99.2436 48.8351 95.7687C47.875 92.2634 46.9167 88.7506 45.9566 85.2453C45.0601 81.9743 44.1711 78.7051 43.2746 75.4341C42.5161 72.6698 41.7652 69.9071 41.0067 67.1427C40.4654 65.1543 39.9195 63.1687 39.3782 61.1802C39.1238 60.2427 38.8832 59.2966 38.6048 58.3614C38.5939 58.3236 38.5802 58.2812 38.5739 58.2405C38.4857 57.9259 38.0043 58.0737 38.0897 58.3837ZM144.871 141.813C144.008 142.104 143.149 142.392 142.282 142.678L141.917 142.798C141.611 142.9 141.755 143.384 142.061 143.282L144.65 142.417L145.015 142.297C145.321 142.195 145.177 141.711 144.871 141.813Z" fill="#304E9B"/>
<path d="M68.9947 67.2096C68.9369 66.7803 68.6148 66.7138 68.2595 66.7574L67.0539 66.8988L64.3927 67.2103C64.0013 67.2572 63.5245 67.3001 63.3915 67.7402C63.3331 67.9425 63.3611 68.1608 63.376 68.3683C63.392 68.6387 63.4052 68.9046 63.4258 69.1722C63.4555 69.6891 63.4899 70.2031 63.5168 70.7154C63.5436 71.2277 63.5482 71.7348 63.6083 72.2391C63.653 72.6064 63.9016 72.7698 64.2587 72.7188C65.2529 72.5756 66.2391 72.3482 67.227 72.1644C67.5061 72.1111 67.7926 72.0596 68.0717 72.0063C68.2888 71.9662 68.5696 71.9565 68.7393 71.7995C69.0355 71.5188 68.886 70.8918 68.8832 70.5303C68.877 69.4186 68.9533 68.3063 68.9936 67.1975C69.0062 66.8709 68.5002 66.8875 68.4876 67.2141C68.4577 68.0232 68.4066 68.8392 68.3842 69.65C68.371 70.0471 68.3698 70.4431 68.3761 70.8408C68.3772 70.9548 68.4528 71.2901 68.3926 71.3978C68.3324 71.5055 67.921 71.5204 67.8018 71.5438C66.9572 71.7019 66.1079 71.8629 65.2604 72.0164C65.0598 72.0524 64.8547 72.0914 64.6541 72.1275C64.5275 72.1492 64.1773 72.2724 64.0977 72.1756C64.0238 72.0879 64.0662 71.6661 64.0605 71.555C64.0468 71.3086 64.033 71.0621 64.0164 70.8112C63.9678 69.9682 63.9163 69.1207 63.8677 68.2778C63.8568 68.087 63.795 67.8451 64.0104 67.7615C64.0832 67.7351 64.16 67.7254 64.2368 67.7157C64.3061 67.7042 64.3737 67.7002 64.4459 67.6933C65.188 67.6057 65.9301 67.5181 66.6722 67.4305C66.7971 67.4162 68.4904 67.2187 68.4893 67.2066C68.534 67.523 69.0382 67.5138 68.9953 67.1901L68.9947 67.2096ZM72.2445 71.4004C77.9515 69.8423 83.832 69.1128 89.6936 68.4143C95.8246 67.6877 101.955 66.9611 108.091 66.2316C111.556 65.8194 115.024 65.4117 118.489 64.9994C118.809 64.9594 118.799 64.4551 118.473 64.4934C112.289 65.2275 106.11 65.9587 99.9264 66.6927C93.8843 67.4084 87.8181 68.0245 81.8064 68.9316C78.5383 69.4246 75.2892 70.0398 72.0985 70.9116C71.7839 70.9998 71.9317 71.4812 72.2417 71.3958L72.2445 71.4004ZM69.9166 81.0082C69.8587 80.579 69.5367 80.5125 69.1814 80.556C68.778 80.6041 68.3791 80.6494 67.9757 80.6975L65.3145 81.0089C64.9232 81.0559 64.4464 81.0988 64.3134 81.5389C64.2549 81.7412 64.283 81.9595 64.2979 82.1669C64.3139 82.4374 64.327 82.7033 64.3477 82.9709C64.3774 83.4878 64.4117 84.0018 64.4386 84.5141C64.4655 85.0264 64.47 85.5335 64.5302 86.0378C64.5748 86.4051 64.8235 86.5685 65.1805 86.5175C66.1747 86.3743 67.1609 86.1469 68.1489 85.9631C68.4279 85.9098 68.7145 85.8583 68.9935 85.805C69.2107 85.7649 69.4915 85.7552 69.6611 85.5982C69.9574 85.3174 69.8079 84.6905 69.8051 84.3289C69.7989 83.2173 69.8752 82.105 69.9154 80.9962C69.928 80.6696 69.4221 80.6861 69.4094 81.0128C69.3796 81.8219 69.3285 82.6379 69.306 83.4487C69.2928 83.8458 69.2916 84.2418 69.2979 84.6395C69.299 84.7535 69.3747 85.0887 69.3145 85.1965C69.2543 85.3042 68.8429 85.319 68.7237 85.3425C67.879 85.5006 67.0298 85.6616 66.1822 85.815C65.9817 85.8511 65.7765 85.8901 65.576 85.9262C65.4493 85.9479 65.0992 86.0711 65.0195 85.9742C64.9456 85.8866 64.9881 85.4648 64.9824 85.3536C64.9686 85.1072 64.9549 84.8608 64.9383 84.6098C64.8897 83.7669 64.8382 82.9194 64.7895 82.0765C64.7787 81.8856 64.7168 81.6438 64.9323 81.5602C65.0051 81.5338 65.0818 81.5241 65.1586 81.5143C65.228 81.5029 65.2956 81.4989 65.3678 81.492C66.1099 81.4044 66.852 81.3168 67.594 81.2292C67.719 81.2149 69.4123 81.0174 69.4111 81.0053C69.4558 81.3216 69.9601 81.3125 69.9171 80.9888L69.9166 81.0082ZM73.1664 85.1991C78.8734 83.641 84.7539 82.9115 90.6155 82.213C96.7464 81.4864 102.877 80.7598 109.013 80.0303C112.478 79.618 115.946 79.2104 119.411 78.7981C119.73 78.758 119.721 78.2538 119.395 78.2921C113.211 79.0262 107.032 79.7574 100.848 80.4914C94.8062 81.2071 88.74 81.8231 82.7282 82.7303C79.4602 83.2233 76.211 83.8385 73.0203 84.7103C72.7057 84.7985 72.8535 85.2799 73.1635 85.1945L73.1664 85.1991ZM70.2879 93.4872C70.23 93.058 69.908 92.9915 69.5527 93.035C69.1493 93.0831 68.7504 93.1283 68.347 93.1764L65.6858 93.4879C65.2945 93.5348 64.8177 93.5778 64.6847 94.0178C64.6262 94.2201 64.6543 94.4385 64.6692 94.6459C64.6852 94.9164 64.6983 95.1822 64.7189 95.4499C64.7487 95.9667 64.783 96.4807 64.8099 96.993C64.8368 97.5053 64.8413 98.0125 64.9015 98.5167C64.9461 98.8841 65.1948 99.0474 65.5518 98.9964C66.546 98.8533 67.5322 98.6259 68.5202 98.442C68.7992 98.3887 69.0858 98.3372 69.3648 98.2839C69.582 98.2438 69.8628 98.2341 70.0324 98.0771C70.3287 97.7964 70.1792 97.1695 70.1764 96.8079C70.1702 95.6962 70.2465 94.584 70.2867 93.4751C70.2993 93.1485 69.7934 93.1651 69.7807 93.4917C69.7508 94.3008 69.6998 95.1168 69.6773 95.9277C69.6641 96.3248 69.6629 96.7207 69.6692 97.1184C69.6703 97.2324 69.746 97.5677 69.6858 97.6754C69.6256 97.7831 69.2142 97.798 69.095 97.8215C68.2503 97.9795 67.4011 98.1405 66.5535 98.294C66.353 98.3301 66.1478 98.369 65.9473 98.4051C65.8206 98.4269 65.4705 98.55 65.3908 98.4532C65.3169 98.3655 65.3594 97.9437 65.3536 97.8326C65.3399 97.5862 65.3262 97.3398 65.3096 97.0888C65.261 96.2458 65.2095 95.3983 65.1608 94.5554C65.15 94.3646 65.0881 94.1227 65.3036 94.0391C65.3764 94.0128 65.4531 94.003 65.5299 93.9933C65.5993 93.9818 65.6669 93.9778 65.7391 93.971C66.4812 93.8834 67.2233 93.7958 67.9653 93.7081C68.0903 93.6938 69.7836 93.4963 69.7824 93.4843C69.8271 93.8006 70.3314 93.7915 70.2884 93.4677L70.2879 93.4872ZM73.5377 97.6781C79.2447 96.1199 85.1252 95.3905 90.9868 94.6919C97.1177 93.9653 103.249 93.2387 109.384 92.5092C112.849 92.097 116.317 91.6893 119.783 91.2771C120.102 91.237 120.093 90.7327 119.766 90.7711C113.582 91.5051 107.403 92.2363 101.22 92.9703C95.1775 93.6861 89.1113 94.3021 83.0995 95.2092C79.8315 95.7023 76.5823 96.3174 73.3916 97.1892C73.077 97.2775 73.2248 97.7588 73.5348 97.6735L73.5377 97.6781ZM74.1513 111.453C74.0934 111.023 73.7714 110.957 73.4161 111C73.0127 111.049 72.6139 111.094 72.2104 111.142L69.5492 111.453C69.1579 111.5 68.6811 111.543 68.5481 111.983C68.4896 112.186 68.5177 112.404 68.5326 112.611C68.5486 112.882 68.5618 113.148 68.5824 113.415C68.6121 113.932 68.6464 114.446 68.6733 114.959C68.7002 115.471 68.7047 115.978 68.7649 116.482C68.8095 116.85 69.0582 117.013 69.4152 116.962C70.4094 116.819 71.3956 116.591 72.3836 116.407C72.6626 116.354 72.9492 116.303 73.2282 116.249C73.4454 116.209 73.7262 116.2 73.8958 116.043C74.1921 115.762 74.0426 115.135 74.0398 114.773C74.0336 113.662 74.1099 112.549 74.1501 111.441C74.1628 111.114 73.6568 111.131 73.6441 111.457C73.6143 112.266 73.5632 113.082 73.5408 113.893C73.5275 114.29 73.5264 114.686 73.5326 115.084C73.5338 115.198 73.6094 115.533 73.5492 115.641C73.489 115.749 73.0776 115.763 72.9584 115.787C72.1137 115.945 71.2645 116.106 70.4169 116.259C70.2164 116.296 70.0112 116.334 69.8107 116.371C69.684 116.392 69.3339 116.515 69.2542 116.419C69.1803 116.331 69.2228 115.909 69.2171 115.798C69.2033 115.552 69.1896 115.305 69.173 115.054C69.1244 114.211 69.0729 113.364 69.0243 112.521C69.0134 112.33 68.9515 112.088 69.167 112.005C69.2398 111.978 69.3165 111.968 69.3933 111.959C69.4627 111.947 69.5303 111.943 69.6025 111.936C70.3446 111.849 71.0867 111.761 71.8287 111.674C71.9537 111.659 73.647 111.462 73.6458 111.45C73.6905 111.766 74.1948 111.757 74.1518 111.433L74.1513 111.453ZM77.3965 115.646C83.1035 114.088 88.984 113.359 94.8456 112.66C100.977 111.934 107.107 111.207 113.243 110.478C116.708 110.065 120.176 109.658 123.641 109.245C123.961 109.205 123.951 108.701 123.625 108.739C117.441 109.473 111.262 110.205 105.078 110.939C99.0363 111.654 92.9701 112.27 86.9584 113.178C83.6903 113.671 80.4412 114.286 77.2504 115.158C76.9358 115.246 77.0836 115.727 77.3937 115.642L77.3965 115.646ZM75.0731 125.251C75.0153 124.822 74.6932 124.756 74.338 124.799L73.1323 124.941C72.2458 125.042 71.3576 125.151 70.4711 125.252C70.0797 125.299 69.603 125.342 69.47 125.782C69.4115 125.984 69.4396 126.203 69.4544 126.41C69.4705 126.681 69.4836 126.946 69.5042 127.214C69.534 127.731 69.5683 128.245 69.5952 128.757C69.6238 129.262 69.6266 129.777 69.6867 130.281C69.7314 130.648 69.9801 130.812 70.3371 130.761C71.3313 130.617 72.3175 130.39 73.3054 130.206C73.5845 130.153 73.871 130.101 74.1501 130.048C74.3673 130.008 74.6481 129.998 74.8177 129.841C75.114 129.561 74.9645 128.934 74.9616 128.572C74.9554 127.46 75.0318 126.348 75.072 125.239C75.0846 124.913 74.5786 124.929 74.566 125.256C74.5361 126.065 74.485 126.881 74.4626 127.692C74.4494 128.089 74.4482 128.485 74.4545 128.883C74.4556 128.997 74.5312 129.332 74.471 129.44C74.4109 129.547 73.9994 129.562 73.8802 129.586C73.0356 129.744 72.1863 129.905 71.3388 130.058C71.1382 130.094 70.9331 130.133 70.7325 130.169C70.6059 130.191 70.2557 130.314 70.1761 130.217C70.1022 130.13 70.1446 129.708 70.1389 129.597C70.1252 129.35 70.1115 129.104 70.0949 128.853C70.0462 128.01 69.9947 127.162 69.9461 126.32C69.9352 126.129 69.8734 125.887 70.0888 125.803C70.1616 125.777 70.2384 125.767 70.3152 125.757C70.3845 125.746 70.4521 125.742 70.5244 125.735C71.2664 125.648 72.0085 125.56 72.7506 125.472C72.8755 125.458 74.5689 125.26 74.5677 125.248C74.6124 125.565 75.1166 125.556 75.0737 125.232L75.0731 125.251ZM78.3184 129.445C84.0253 127.887 89.9059 127.157 95.7675 126.459C101.898 125.732 108.029 125.006 114.165 124.276C117.63 123.864 121.098 123.456 124.563 123.044C124.882 123.004 124.873 122.5 124.547 122.538C118.363 123.272 112.184 124.003 106 124.737C99.9581 125.453 93.892 126.069 87.8802 126.976C84.6122 127.469 81.363 128.084 78.1723 128.956C77.8577 129.044 78.0055 129.526 78.3155 129.44L78.3184 129.445ZM75.4398 137.733C75.382 137.304 75.06 137.237 74.7047 137.281L73.499 137.422C72.6125 137.524 71.7243 137.633 70.8378 137.734C70.4464 137.781 69.9697 137.824 69.8367 138.264C69.7782 138.466 69.8063 138.684 69.8212 138.892C69.8372 139.162 69.8503 139.428 69.8709 139.696C69.9007 140.213 69.935 140.727 69.9619 141.239C69.9888 141.751 69.9933 142.258 70.0534 142.763C70.0981 143.13 70.3468 143.293 70.7038 143.242C71.698 143.099 72.6842 142.872 73.6721 142.688C73.9512 142.635 74.2377 142.583 74.5168 142.53C74.734 142.49 75.0148 142.48 75.1844 142.323C75.4807 142.042 75.3312 141.415 75.3284 141.054C75.3222 139.942 75.3985 138.83 75.4387 137.721C75.4513 137.394 74.9453 137.411 74.9327 137.738C74.9028 138.547 74.8517 139.363 74.8293 140.174C74.8161 140.571 74.8149 140.967 74.8212 141.364C74.8223 141.478 74.8979 141.814 74.8378 141.921C74.7776 142.029 74.3661 142.044 74.2469 142.067C73.4023 142.226 72.553 142.386 71.7055 142.54C71.5049 142.576 71.2998 142.615 71.0992 142.651C70.9726 142.673 70.6225 142.796 70.5428 142.699C70.4689 142.611 70.5113 142.19 70.5056 142.079C70.4919 141.832 70.4782 141.586 70.4616 141.335C70.4129 140.492 70.3614 139.644 70.3128 138.801C70.302 138.611 70.2401 138.369 70.4556 138.285C70.5283 138.259 70.6051 138.249 70.6819 138.239C70.7512 138.228 70.8189 138.224 70.8911 138.217C71.6331 138.129 72.3752 138.042 73.1173 137.954C73.2422 137.94 74.9356 137.742 74.9344 137.73C74.9791 138.047 75.4834 138.037 75.4404 137.714L75.4398 137.733ZM78.6897 141.924C84.3966 140.366 90.2772 139.636 96.1388 138.938C102.27 138.211 108.401 137.485 114.536 136.755C118.001 136.343 121.469 135.935 124.934 135.523C125.254 135.483 125.245 134.979 124.918 135.017C118.734 135.751 112.555 136.482 106.372 137.216C100.329 137.932 94.2633 138.548 88.2515 139.455C84.9835 139.948 81.7343 140.563 78.5436 141.435C78.229 141.523 78.3768 142.005 78.6868 141.919L78.6897 141.924Z" fill="#304E9B"/>
<path d="M62.3446 58.4626C68.0516 56.9045 73.9321 56.175 79.7937 55.4764C85.9247 54.7498 92.0556 54.0232 98.1911 53.2938C101.656 52.8815 113.868 51.8279 117.333 51.4156C117.652 51.3755 117.643 50.8713 117.316 50.9096C111.133 51.6437 96.2102 53.0208 90.0265 53.7549C83.9844 54.4706 77.9182 55.0866 71.9065 55.9937C68.6384 56.4868 65.3893 57.1019 62.1986 57.9738C61.884 58.062 62.0317 58.5434 62.3418 58.458L62.3446 58.4626Z" fill="#304E9B"/>
</g>
<defs>
<filter id="filter0_d_2404_3374" x="-36.1025" y="-12.0342" width="262.906" height="262.905" filterUnits="userSpaceOnUse" color-interpolation-filters="sRGB">
<feFlood flood-opacity="0" result="BackgroundImageFix"/>
<feColorMatrix in="SourceAlpha" type="matrix" values="0 0 0 0 0 0 0 0 0 0 0 0 0 0 0 0 0 0 127 0" result="hardAlpha"/>
<feMorphology radius="12" operator="erode" in="SourceAlpha" result="effect1_dropShadow_2404_3374"/>
<feOffset dy="24"/>
<feGaussianBlur stdDeviation="24"/>
<feColorMatrix type="matrix" values="0 0 0 0 0.0901961 0 0 0 0 0.0901961 0 0 0 0 0.0901961 0 0 0 0.18 0"/>
<feBlend mode="normal" in2="BackgroundImageFix" result="effect1_dropShadow_2404_3374"/>
<feBlend mode="normal" in="SourceGraphic" in2="effect1_dropShadow_2404_3374" result="shape"/>
</filter>
<clipPath id="clip0_2404_3374">
<rect width="138" height="138" fill="white" transform="translate(0 73.337) scale(1.00285) rotate(-32)"/>
</clipPath>
</defs>
</svg>
